<svg xmlns="http://www.w3.org/2000/svg" viewBox="0 0 512 512"><path d="M3,31.72S-7.13,29.15,9.87,29.3l13.62-1,10-2.57,9.93.74s2.83,6.78,8.5,82.15c0,0,5.69,30.15,5.69,70.83,0,0-2.95,294.92-8.92,317.08,0,0,8.55-184.92,5.84-196.57,0,0-7,176.83-12.42,190.41,0,0,8-171.54,1.08-186.79,0,0-7.37,157.88-14.27,177,0,0,2.74-30.3,1.9-38.39l-2.07,14.1L29,433.54l1.58-13.13S25.88,456,23.47,458.46c0,0,2.86,16.23,1.8-48C25.27,410.46,42,258.56,3,31.72Z" /><path d="M483.44,3.48s2.49-11.8,2.34,8l1,15.89,2.47,11.66-.72,11.56S482,54,409.28,60.56c0,0-29.07,6.63-68.32,6.63,0,0-284.49-3.42-305.88-10.4,0,0,178.38,10,189.64,6.8,0,0-170.6-8.16-183.68-14.47,0,0,165.47,9.34,180.18,1.25,0,0-152.31-8.6-170.74-16.63,0,0,29.22,3.22,37,2.22L73.9,33.53l21.95.34,12.64,1.85s-34.3-5.52-36.71-8.33c0,0-15.65,3.37,46.3,2.09C118.08,29.47,264.63,49,483.44,3.48Z" /><path d="M483.44,444.19s2.49-12.56,2.34,8.55l1,16.92,2.47,12.42-.72,12.3S482,497.92,409.28,505c0,0-29.07,7.05-68.32,7.05,0,0-284.49-3.65-305.88-11.07,0,0,178.38,10.62,189.64,7.25,0,0-170.6-8.72-183.68-15.43,0,0,165.47,9.95,180.18,1.35,0,0-152.31-9.14-170.74-17.72,0,0,29.22,3.43,37,2.37L73.9,476.17l21.95.35,12.64,2s-34.3-5.87-36.71-8.87c0,0-15.65,3.58,46.3,2.26C118.08,471.88,264.63,492.63,483.44,444.19Z" /><path d="M456.47,31.72s-10.28-2.57,7-2.42l13.84-1,10.17-2.57,10.1.74s2.88,6.78,8.65,82.15c0,0,5.76,30.15,5.76,70.83,0,0-3,294.92-9.06,317.08,0,0,8.7-184.92,5.94-196.57,0,0-7.14,176.83-12.62,190.41,0,0,8.16-171.54,1.09-186.79,0,0-7.51,157.88-14.53,177,0,0,2.81-30.3,2-38.39l-2.1,14.1.29-22.72,1.62-13.13s-4.81,35.58-7.27,38.06c0,0,2.93,16.23,1.82-48C479.13,410.46,496.15,258.56,456.47,31.72Z" /></svg>
