<svg viewBox="0 0 448 512" xmlns="http://www.w3.org/2000/svg">
<path d="M16 111H432C440.837 111 448 103.837 448 95V76C448 67.163 440.837 60 432 60H16C7.163 60 0 67.163 0 76V95C0 103.837 7.163 111 16 111ZM16 257H432C440.837 257 448 249.837 448 241V201C448 192.163 440.837 185 432 185H16C7.163 185 0 192.163 0 201V241C0 249.837 7.163 257 16 257ZM16 452H432C440.837 452 448 444.837 448 436V348C448 339.163 440.837 332 432 332H16C7.163 332 0 339.163 0 348V436C0 444.837 7.163 452 16 452Z" fill="black"/>
</svg>
